<?xml version="1.0" standalone="no"?>
<!DOCTYPE svg PUBLIC "-//W3C//DTD SVG 20010904//EN"
 "http://www.w3.org/TR/2001/REC-SVG-20010904/DTD/svg10.dtd">
<svg version="1.0" xmlns="http://www.w3.org/2000/svg"
 width="1024.000000pt" height="183.000000pt" viewBox="0 0 1024.000000 183.000000"
 preserveAspectRatio="xMidYMid meet">

<g transform="translate(0.000000,183.000000) scale(0.100000,-0.100000)"
fill="#000000" stroke="none">
<path d="M1 1783 c1 -27 4 -38 6 -27 5 26 40 60 68 67 11 3 -1 5 -27 6 l-48 1
1 -47z"/>
<path d="M10175 1821 c22 -10 49 -38 58 -61 3 -8 6 4 6 28 l1 42 -42 -1 c-33
0 -38 -2 -23 -8z"/>
<path d="M200 275 l0 -75 95 0 95 0 0 75 0 75 -95 0 -95 0 0 -75z"/>
<path d="M1 43 l-1 -43 43 1 c23 0 35 3 27 6 -23 9 -51 36 -61 58 -6 15 -8 10
-8 -22z"/>
<path d="M10230 67 c0 -15 -37 -51 -60 -60 -8 -3 4 -6 28 -6 l42 -1 0 40 c0
22 -2 40 -5 40 -3 0 -5 -6 -5 -13z"/>
</g>
</svg>
